<svg width="196" height="32" viewBox="0 0 196 32" fill="none" xmlns="http://www.w3.org/2000/svg">
<path d="M0.591187 31.5006V8.9883H5.08534V13.5241L4.66921 12.8583C5.16856 11.3879 5.97307 10.3338 7.08273 9.69571C8.1924 9.02991 9.524 8.69701 11.0775 8.69701H12.4507V12.9831H10.495C8.94143 12.9831 7.67918 13.4686 6.70822 14.4395C5.76501 15.3827 5.2934 16.7421 5.2934 18.5176V31.5006H0.591187Z" fill="#064E3B"/>
<path d="M28.8379 32C26.5909 32 24.5935 31.4868 22.8457 30.4603C21.1258 29.4062 19.7803 27.9913 18.8093 26.2159C17.8384 24.4127 17.3529 22.4014 17.3529 20.1821C17.3529 17.9072 17.8384 15.896 18.8093 14.1482C19.808 12.4005 21.1396 11.0273 22.8041 10.0286C24.4686 9.00217 26.3551 8.48895 28.4634 8.48895C30.1557 8.48895 31.6676 8.78023 32.9992 9.36281C34.3308 9.94538 35.4543 10.7499 36.3698 11.7763C37.2853 12.775 37.9788 13.9263 38.4504 15.2302C38.9498 16.534 39.1994 17.9211 39.1994 19.3914C39.1994 19.7521 39.1856 20.1266 39.1578 20.515C39.1301 20.9033 39.0746 21.264 38.9914 21.5969H21.0564V17.8518H36.3282L34.0811 19.5579C34.3585 18.1985 34.2614 16.9918 33.7898 15.9376C33.346 14.8557 32.6524 14.0095 31.7092 13.3992C30.7937 12.7612 29.7118 12.4421 28.4634 12.4421C27.215 12.4421 26.1054 12.7612 25.1344 13.3992C24.1635 14.0095 23.4144 14.8973 22.8874 16.0624C22.3603 17.1998 22.1522 18.5869 22.2632 20.2237C22.1245 21.7495 22.3325 23.0811 22.8874 24.2185C23.4699 25.3559 24.2744 26.2436 25.3009 26.8817C26.3551 27.5197 27.5479 27.8388 28.8795 27.8388C30.2389 27.8388 31.3902 27.5336 32.3334 26.9233C33.3043 26.313 34.0672 25.5223 34.6221 24.5514L38.4504 26.4239C38.0066 27.4781 37.313 28.4352 36.3698 29.2952C35.4543 30.1274 34.3447 30.7932 33.0408 31.2926C31.7647 31.7642 30.3637 32 28.8379 32Z" fill="#064E3B"/>
<path d="M46.3893 31.5006V8.9883H50.8835V13.3992L50.3425 12.8166C50.8973 11.4018 51.7851 10.3338 53.0057 9.61248C54.2263 8.86346 55.6411 8.48895 57.2502 8.48895C58.9147 8.48895 60.385 8.84959 61.6611 9.57087C62.9372 10.2922 63.9359 11.2909 64.6572 12.567C65.3785 13.8431 65.7391 15.3134 65.7391 16.9779V31.5006H61.0785V18.2263C61.0785 17.0889 60.8704 16.1318 60.4543 15.355C60.0382 14.5505 59.4418 13.9402 58.665 13.5241C57.916 13.0802 57.056 12.8583 56.085 12.8583C55.1141 12.8583 54.2402 13.0802 53.4634 13.5241C52.7144 13.9402 52.1318 14.5505 51.7157 15.355C51.2996 16.1595 51.0915 17.1166 51.0915 18.2263V31.5006H46.3893Z" fill="#064E3B"/>
<path d="M84.2333 32C82.0694 32 80.0859 31.4868 78.2827 30.4603C76.5072 29.4339 75.0924 28.0329 74.0382 26.2575C72.984 24.482 72.4569 22.4707 72.4569 20.2237C72.4569 17.9489 72.984 15.9376 74.0382 14.1899C75.0924 12.4144 76.5072 11.0273 78.2827 10.0286C80.0581 9.00217 82.0417 8.48895 84.2333 8.48895C86.4526 8.48895 88.4361 9.00217 90.1838 10.0286C91.9593 11.0273 93.3603 12.4144 94.3867 14.1899C95.4409 15.9376 95.968 17.9489 95.968 20.2237C95.968 22.4985 95.4409 24.5236 94.3867 26.2991C93.3325 28.0746 91.9177 29.4755 90.1422 30.5019C88.3668 31.5006 86.3971 32 84.2333 32ZM84.2333 27.6307C85.5649 27.6307 86.7439 27.3117 87.7703 26.6736C88.7968 26.0355 89.6013 25.1617 90.1838 24.052C90.7942 22.9146 91.0993 21.6385 91.0993 20.2237C91.0993 18.8088 90.7942 17.5466 90.1838 16.4369C89.6013 15.3273 88.7968 14.4534 87.7703 13.8153C86.7439 13.1773 85.5649 12.8583 84.2333 12.8583C82.9294 12.8583 81.7504 13.1773 80.6962 13.8153C79.6698 14.4534 78.8514 15.3273 78.2411 16.4369C77.6585 17.5466 77.3672 18.8088 77.3672 20.2237C77.3672 21.6385 77.6585 22.9146 78.2411 24.052C78.8514 25.1617 79.6698 26.0355 80.6962 26.6736C81.7504 27.3117 82.9294 27.6307 84.2333 27.6307Z" fill="#064E3B"/>
<path d="M112.49 31.7503C110.132 31.7503 108.301 31.0845 106.998 29.7529C105.694 28.4213 105.042 26.5488 105.042 24.1352V13.2328H101.089V8.9883H101.713C102.767 8.9883 103.585 8.68314 104.168 8.07282C104.75 7.4625 105.042 6.63025 105.042 5.57607V3.82835H109.744V8.9883H114.862V13.2328H109.744V23.9272C109.744 24.7039 109.869 25.3697 110.118 25.9246C110.368 26.4517 110.77 26.8678 111.325 27.1729C111.88 27.4504 112.601 27.5891 113.489 27.5891C113.711 27.5891 113.961 27.5752 114.238 27.5475C114.516 27.5197 114.779 27.492 115.029 27.4642V31.5006C114.64 31.5561 114.21 31.6116 113.739 31.6671C113.267 31.7226 112.851 31.7503 112.49 31.7503Z" fill="#064E3B"/>
<path d="M128.756 32C127.231 32 125.885 31.7365 124.72 31.2094C123.583 30.6545 122.695 29.9055 122.057 28.9623C121.419 27.9913 121.1 26.8539 121.1 25.5501C121.1 24.3294 121.363 23.2336 121.89 22.2627C122.445 21.2917 123.291 20.4733 124.429 19.8075C125.566 19.1417 126.995 18.6701 128.715 18.3927L136.538 17.1027V20.8062L129.63 22.013C128.382 22.2349 127.466 22.6372 126.884 23.2198C126.301 23.7746 126.01 24.4959 126.01 25.3836C126.01 26.2436 126.329 26.951 126.967 27.5058C127.633 28.0329 128.479 28.2965 129.505 28.2965C130.781 28.2965 131.891 28.0191 132.834 27.4642C133.805 26.9094 134.554 26.1742 135.081 25.2588C135.609 24.3156 135.872 23.2752 135.872 22.1378V16.3537C135.872 15.244 135.456 14.3424 134.624 13.6489C133.819 12.9276 132.737 12.567 131.378 12.567C130.13 12.567 129.034 12.8999 128.091 13.5657C127.175 14.2037 126.495 15.036 126.052 16.0624L122.14 14.1066C122.556 12.997 123.236 12.026 124.179 11.1938C125.122 10.3338 126.218 9.66797 127.466 9.19636C128.742 8.72475 130.088 8.48895 131.503 8.48895C133.278 8.48895 134.846 8.82185 136.205 9.48764C137.592 10.1534 138.66 11.0828 139.409 12.2757C140.186 13.4408 140.574 14.8002 140.574 16.3537V31.5006H136.08V27.4226L137.037 27.5475C136.51 28.4629 135.83 29.2536 134.998 29.9194C134.194 30.5852 133.264 31.0984 132.21 31.459C131.184 31.8197 130.032 32 128.756 32Z" fill="#064E3B"/>
<path d="M148.673 31.5006V0H153.375V21.0975L151.544 20.6398L162.821 8.9883H168.689L160.2 18.0182L169.063 31.5006H163.654L155.747 19.5579L158.535 19.1834L151.877 26.2575L153.375 23.1365V31.5006H148.673Z" fill="#064E3B"/>
<path d="M185.047 32C182.8 32 180.803 31.4868 179.055 30.4603C177.335 29.4062 175.99 27.9913 175.019 26.2159C174.048 24.4127 173.562 22.4014 173.562 20.1821C173.562 17.9072 174.048 15.896 175.019 14.1482C176.017 12.4005 177.349 11.0273 179.013 10.0286C180.678 9.00217 182.564 8.48895 184.673 8.48895C186.365 8.48895 187.877 8.78023 189.209 9.36281C190.54 9.94538 191.664 10.7499 192.579 11.7763C193.495 12.775 194.188 13.9263 194.66 15.2302C195.159 16.534 195.409 17.9211 195.409 19.3914C195.409 19.7521 195.395 20.1266 195.367 20.515C195.339 20.9033 195.284 21.264 195.201 21.5969H177.266V17.8518H192.538L190.29 19.5579C190.568 18.1985 190.471 16.9918 189.999 15.9376C189.555 14.8557 188.862 14.0095 187.919 13.3992C187.003 12.7612 185.921 12.4421 184.673 12.4421C183.424 12.4421 182.315 12.7612 181.344 13.3992C180.373 14.0095 179.624 14.8973 179.097 16.0624C178.57 17.1998 178.362 18.5869 178.473 20.2237C178.334 21.7495 178.542 23.0811 179.097 24.2185C179.679 25.3559 180.484 26.2436 181.51 26.8817C182.564 27.5197 183.757 27.8388 185.089 27.8388C186.448 27.8388 187.6 27.5336 188.543 26.9233C189.514 26.313 190.277 25.5223 190.831 24.5514L194.66 26.4239C194.216 27.4781 193.522 28.4352 192.579 29.2952C191.664 30.1274 190.554 30.7932 189.25 31.2926C187.974 31.7642 186.573 32 185.047 32Z" fill="#064E3B"/>
</svg>
